<?xml version="1.0" encoding="UTF-8" standalone="no"?>
<svg
   xmlns:dc="http://purl.org/dc/elements/1.1/"
   xmlns:cc="http://creativecommons.org/ns#"
   xmlns:rdf="http://www.w3.org/1999/02/22-rdf-syntax-ns#"
   xmlns:svg="http://www.w3.org/2000/svg"
   xmlns="http://www.w3.org/2000/svg"
   xmlns:sodipodi="http://sodipodi.sourceforge.net/DTD/sodipodi-0.dtd"
   xmlns:inkscape="http://www.inkscape.org/namespaces/inkscape"
   id="Layer_1"
   data-name="Layer 1"
   viewBox="0 0 60.17 50.76"
   version="1.1"
   sodipodi:docname="caution-blue.svg"
   inkscape:version="0.92.2 (unknown)">
  <metadata
     id="metadata13">
    <rdf:RDF>
      <cc:Work
         rdf:about="">
        <dc:format>image/svg+xml</dc:format>
        <dc:type
           rdf:resource="http://purl.org/dc/dcmitype/StillImage" />
      </cc:Work>
    </rdf:RDF>
  </metadata>
  <sodipodi:namedview
     pagecolor="#ffffff"
     bordercolor="#666666"
     borderopacity="1"
     objecttolerance="10"
     gridtolerance="10"
     guidetolerance="10"
     inkscape:pageopacity="0"
     inkscape:pageshadow="2"
     inkscape:window-width="1301"
     inkscape:window-height="744"
     id="namedview11"
     showgrid="false"
     inkscape:zoom="4.6493303"
     inkscape:cx="30.084999"
     inkscape:cy="25.379999"
     inkscape:window-x="65"
     inkscape:window-y="24"
     inkscape:window-maximized="1"
     inkscape:current-layer="Layer_1" />
  <defs
     id="defs4">
    <style
       id="style2">.cls-1{fill:gray;fill-rule:evenodd}</style>
  </defs>
  <title
     id="title6">pepper</title>
  <path
     class="cls-1"
     d="M33.43 2l26 42.79a3.76 3.76 0 0 1-3.07 5.94H3.76a3.76 3.76 0 0 1-3.07-5.9L26.74 2a3.76 3.76 0 0 1 6.69 0zm-3.35 11.16a3.77 3.77 0 0 0-3.76 3.76v13.16a3.76 3.76 0 1 0 7.52 0V16.92a3.78 3.78 0 0 0-3.76-3.76zm0 24.44a3.76 3.76 0 1 0 3.76 3.76 3.76 3.76 0 0 0-3.76-3.76z"
     id="path8"
     style="fill:#7ed2f6" />
</svg>
