<?xml version="1.0" encoding="UTF-8" standalone="no"?>
<svg
   xmlns:dc="http://purl.org/dc/elements/1.1/"
   xmlns:cc="http://creativecommons.org/ns#"
   xmlns:rdf="http://www.w3.org/1999/02/22-rdf-syntax-ns#"
   xmlns:svg="http://www.w3.org/2000/svg"
   xmlns="http://www.w3.org/2000/svg"
   xmlns:sodipodi="http://sodipodi.sourceforge.net/DTD/sodipodi-0.dtd"
   xmlns:inkscape="http://www.inkscape.org/namespaces/inkscape"
   version="1.1"
   x="0px"
   y="0px"
   viewBox="0 0 69.739601 26.142118"
   enable-background="new 0 0 100 100"
   xml:space="preserve"
   id="svg909"
   sodipodi:docname="click-sort06-gray.svg"
   inkscape:version="0.92.3 (3ce5693, 2018-03-11)"
   width="69.739601"
   height="26.142118"><metadata
     id="metadata915"><rdf:RDF><cc:Work
         rdf:about=""><dc:format>image/svg+xml</dc:format><dc:type
           rdf:resource="http://purl.org/dc/dcmitype/StillImage" /><dc:title></dc:title></cc:Work></rdf:RDF></metadata><defs
     id="defs913" /><sodipodi:namedview
     pagecolor="#ffffff"
     bordercolor="#666666"
     borderopacity="1"
     objecttolerance="10"
     gridtolerance="10"
     guidetolerance="10"
     inkscape:pageopacity="0"
     inkscape:pageshadow="2"
     inkscape:window-width="1213"
     inkscape:window-height="745"
     id="namedview911"
     showgrid="false"
     inkscape:zoom="3.7248522"
     inkscape:cx="14.943434"
     inkscape:cy="14.782825"
     inkscape:window-x="67"
     inkscape:window-y="27"
     inkscape:window-maximized="1"
     inkscape:current-layer="g903" /><g
     id="g903"
     transform="translate(-14.772245,-36.988128)"><path
       d="m 26.214609,55.035344 -3.562686,3.464967 V 38.14831 c 0,-0.640852 -0.413676,-1.160182 -1.080093,-1.160182 -0.666417,0 -1.080093,0.51933 -1.080093,1.160182 v 20.371215 l -3.60211,-3.484181 c -0.46444,-0.460645 -1.265869,-0.468954 -1.74327,-0.02285 -0.477401,0.447143 -0.505483,1.181474 -0.0405,1.640562 l 5.571659,5.511643 c 0.23654,0.233698 0.545447,0.351587 0.859754,0.351587 0.0027,0 0.0043,-0.0021 0.007,-0.0021 0.0032,0 0.0054,0.0021 0.0081,0.0021 0.158234,0 0.316467,-0.03064 0.46498,-0.09088 0.148513,-0.05868 0.280824,-0.14697 0.392074,-0.25603 0.0016,-0.0021 0.0049,-0.0021 0.0065,-0.0047 l 5.58138,-5.511644 c 0.46444,-0.459087 0.428257,-1.193418 -0.05022,-1.640561 -0.475781,-0.446623 -1.267489,-0.437795 -1.732469,0.02285 z"
       id="path895"
       inkscape:connector-curvature="0"
       style="fill:#ececec;stroke-width:0.52958667" /><path
       d="m 67.885,38.221604 h -35.75 c -1.235,0 -2.234,0.721623 -2.234,1.426132 0,0.703939 1,1.426132 2.234,1.426132 h 35.75 c 1.234,0 2.234,-0.722193 2.234,-1.426132 0,-0.704509 -1,-1.426132 -2.234,-1.426132 z"
       id="path899"
       inkscape:connector-curvature="0"
       style="fill:#ececec;stroke-width:0.75528324" /><g
       aria-label="click"
       style="font-style:normal;font-weight:normal;font-size:40px;line-height:1.25;font-family:sans-serif;letter-spacing:0px;word-spacing:0px;fill:#ececec;fill-opacity:1;stroke:none"
       id="text957"><path
         d="m 39.022188,46.30951 v 2.091146 q -0.522786,-0.358073 -1.052734,-0.529948 -0.522787,-0.171875 -1.088542,-0.171875 -1.074219,0 -1.675781,0.630209 -0.594401,0.623047 -0.594401,1.747396 0,1.124349 0.594401,1.754557 0.601562,0.623047 1.675781,0.623047 0.601563,0 1.138672,-0.179037 0.544271,-0.179036 1.002604,-0.529948 v 2.098308 q -0.601562,0.222005 -1.224609,0.329427 -0.615885,0.114583 -1.238932,0.114583 -2.169922,0 -3.394532,-1.110026 -1.224609,-1.117187 -1.224609,-3.100911 0,-1.983724 1.224609,-3.093751 1.22461,-1.117187 3.394532,-1.117187 0.630208,0 1.238932,0.114583 0.615885,0.107422 1.224609,0.329427 z"
         style="font-style:normal;font-variant:normal;font-weight:bold;font-stretch:normal;font-size:14.66666698px;font-family:sans-serif;-inkscape-font-specification:'sans-serif Bold';fill:#ececec"
         id="path1252" /><path
         d="m 41.249402,42.936463 h 2.563803 v 11.14323 h -2.563803 z"
         style="font-style:normal;font-variant:normal;font-weight:bold;font-stretch:normal;font-size:14.66666698px;font-family:sans-serif;-inkscape-font-specification:'sans-serif Bold';fill:#ececec"
         id="path1254" /><path
         d="m 46.291069,46.058859 h 2.563803 v 8.020834 h -2.563803 z m 0,-3.122396 h 2.563803 v 2.091146 h -2.563803 z"
         style="font-style:normal;font-variant:normal;font-weight:bold;font-stretch:normal;font-size:14.66666698px;font-family:sans-serif;-inkscape-font-specification:'sans-serif Bold';fill:#ececec"
         id="path1256" /><path
         d="m 57.813856,46.30951 v 2.091146 q -0.522786,-0.358073 -1.052734,-0.529948 -0.522787,-0.171875 -1.088542,-0.171875 -1.074219,0 -1.675781,0.630209 -0.594401,0.623047 -0.594401,1.747396 0,1.124349 0.594401,1.754557 0.601562,0.623047 1.675781,0.623047 0.601563,0 1.138672,-0.179037 0.544271,-0.179036 1.002604,-0.529948 v 2.098308 q -0.601562,0.222005 -1.224609,0.329427 -0.615886,0.114583 -1.238932,0.114583 -2.169922,0 -3.394532,-1.110026 -1.224609,-1.117187 -1.224609,-3.100911 0,-1.983724 1.224609,-3.093751 1.22461,-1.117187 3.394532,-1.117187 0.630208,0 1.238932,0.114583 0.615885,0.107422 1.224609,0.329427 z"
         style="font-style:normal;font-variant:normal;font-weight:bold;font-stretch:normal;font-size:14.66666698px;font-family:sans-serif;-inkscape-font-specification:'sans-serif Bold';fill:#ececec"
         id="path1258" /><path
         d="m 60.04107,42.936463 h 2.563802 v 6.065756 l 2.950521,-2.94336 h 2.979167 l -3.917318,3.68099 4.225261,4.339844 H 65.73443 l -3.129558,-3.344401 v 3.344401 H 60.04107 Z"
         style="font-style:normal;font-variant:normal;font-weight:bold;font-stretch:normal;font-size:14.66666698px;font-family:sans-serif;-inkscape-font-specification:'sans-serif Bold';fill:#ececec"
         id="path1260" /></g><path
       d="m 82.399928,45.08303 -3.562686,-3.464967 v 20.352001 c 0,0.640852 -0.413676,1.160182 -1.080093,1.160182 -0.666417,0 -1.080093,-0.51933 -1.080093,-1.160182 V 41.598849 l -3.60211,3.484181 c -0.46444,0.460645 -1.265869,0.468954 -1.74327,0.02285 -0.477401,-0.447143 -0.505483,-1.181474 -0.0405,-1.640562 l 5.571659,-5.511643 c 0.23654,-0.233698 0.545447,-0.351587 0.859754,-0.351587 0.0027,0 0.0043,0.0021 0.007,0.0021 0.0032,0 0.0054,-0.0021 0.0081,-0.0021 0.158234,0 0.316467,0.03064 0.46498,0.09088 0.148513,0.05868 0.280824,0.14697 0.392074,0.25603 0.0016,0.0021 0.0049,0.0021 0.0065,0.0047 l 5.58138,5.511644 c 0.46444,0.459087 0.428257,1.193418 -0.05022,1.640561 -0.475781,0.446623 -1.267489,0.437795 -1.732469,-0.02285 z"
       id="path895-6"
       inkscape:connector-curvature="0"
       style="fill:#ececec;stroke-width:0.52958667" /><path
       d="m 69.193503,58.322085 h -35.75 c -1.235,0 -2.234,0.721623 -2.234,1.426132 0,0.703939 1,1.426132 2.234,1.426132 h 35.75 c 1.234,0 2.234,-0.722193 2.234,-1.426132 0,-0.704509 -1,-1.426132 -2.234,-1.426132 z"
       id="path899-7"
       inkscape:connector-curvature="0"
       style="fill:#ececec;stroke-width:0.75528324" /></g></svg>