<?xml version="1.0" encoding="UTF-8" standalone="no"?>
<svg
   xmlns:dc="http://purl.org/dc/elements/1.1/"
   xmlns:cc="http://creativecommons.org/ns#"
   xmlns:rdf="http://www.w3.org/1999/02/22-rdf-syntax-ns#"
   xmlns:svg="http://www.w3.org/2000/svg"
   xmlns="http://www.w3.org/2000/svg"
   xmlns:sodipodi="http://sodipodi.sourceforge.net/DTD/sodipodi-0.dtd"
   xmlns:inkscape="http://www.inkscape.org/namespaces/inkscape"
   version="1.1"
   x="0px"
   y="0px"
   viewBox="0 0 69.739601 26.142118"
   enable-background="new 0 0 100 100"
   xml:space="preserve"
   id="svg909"
   sodipodi:docname="date-sort06-gray.svg"
   inkscape:version="0.92.3 (3ce5693, 2018-03-11)"
   width="69.739601"
   height="26.142118"><metadata
     id="metadata915"><rdf:RDF><cc:Work
         rdf:about=""><dc:format>image/svg+xml</dc:format><dc:type
           rdf:resource="http://purl.org/dc/dcmitype/StillImage" /><dc:title></dc:title></cc:Work></rdf:RDF></metadata><defs
     id="defs913" /><sodipodi:namedview
     pagecolor="#ffffff"
     bordercolor="#666666"
     borderopacity="1"
     objecttolerance="10"
     gridtolerance="10"
     guidetolerance="10"
     inkscape:pageopacity="0"
     inkscape:pageshadow="2"
     inkscape:window-width="1213"
     inkscape:window-height="745"
     id="namedview911"
     showgrid="false"
     inkscape:zoom="3.7248522"
     inkscape:cx="14.943434"
     inkscape:cy="14.782825"
     inkscape:window-x="67"
     inkscape:window-y="27"
     inkscape:window-maximized="1"
     inkscape:current-layer="g903" /><g
     id="g903"
     transform="translate(-14.772245,-36.988128)"><path
       d="m 26.214609,55.035344 -3.562686,3.464967 V 38.14831 c 0,-0.640852 -0.413676,-1.160182 -1.080093,-1.160182 -0.666417,0 -1.080093,0.51933 -1.080093,1.160182 v 20.371215 l -3.60211,-3.484181 c -0.46444,-0.460645 -1.265869,-0.468954 -1.74327,-0.02285 -0.477401,0.447143 -0.505483,1.181474 -0.0405,1.640562 l 5.571659,5.511643 c 0.23654,0.233698 0.545447,0.351587 0.859754,0.351587 0.0027,0 0.0043,-0.0021 0.007,-0.0021 0.0032,0 0.0054,0.0021 0.0081,0.0021 0.158234,0 0.316467,-0.03064 0.46498,-0.09088 0.148513,-0.05868 0.280824,-0.14697 0.392074,-0.25603 0.0016,-0.0021 0.0049,-0.0021 0.0065,-0.0047 l 5.58138,-5.511644 c 0.46444,-0.459087 0.428257,-1.193418 -0.05022,-1.640561 -0.475781,-0.446623 -1.267489,-0.437795 -1.732469,0.02285 z"
       id="path895"
       inkscape:connector-curvature="0"
       style="fill:#ececec;stroke-width:0.52958667" /><path
       d="m 67.885,38.221604 h -35.75 c -1.235,0 -2.234,0.721623 -2.234,1.426132 0,0.703939 1,1.426132 2.234,1.426132 h 35.75 c 1.234,0 2.234,-0.722193 2.234,-1.426132 0,-0.704509 -1,-1.426132 -2.234,-1.426132 z"
       id="path899"
       inkscape:connector-curvature="0"
       style="fill:#ececec;stroke-width:0.75528324" /><g
       aria-label="date"
       style="font-style:normal;font-weight:normal;font-size:40px;line-height:1.25;font-family:sans-serif;letter-spacing:0px;word-spacing:0px;fill:#ececec;fill-opacity:1;stroke:none"
       id="text957"><path
         d="m 37.9981,47.233339 v -4.296876 h 2.578125 v 11.14323 H 37.9981 v -1.160156 q -0.529948,0.708984 -1.167318,1.038411 -0.63737,0.329427 -1.47526,0.329427 -1.482422,0 -2.434896,-1.174479 -0.952474,-1.181641 -0.952474,-3.036458 0,-1.854818 0.952474,-3.029297 0.952474,-1.181641 2.434896,-1.181641 0.830729,0 1.468099,0.336589 0.644531,0.329427 1.174479,1.03125 z m -1.690104,5.192057 q 0.823567,0 1.253255,-0.601563 0.436849,-0.601562 0.436849,-1.747395 0,-1.145834 -0.436849,-1.747396 -0.429688,-0.601563 -1.253255,-0.601563 -0.816407,0 -1.253256,0.601563 -0.429687,0.601562 -0.429687,1.747396 0,1.145833 0.429687,1.747395 0.436849,0.601563 1.253256,0.601563 z"
         style="font-style:normal;font-variant:normal;font-weight:bold;font-stretch:normal;font-size:14.66666698px;font-family:sans-serif;-inkscape-font-specification:'sans-serif Bold';fill:#ececec"
         id="path1194" /><path
         d="m 46.649142,50.470318 q -0.802083,0 -1.210286,0.272135 -0.401042,0.272136 -0.401042,0.802084 0,0.486979 0.322266,0.766276 0.329427,0.272135 0.909505,0.272135 0.723307,0 1.217448,-0.515625 0.49414,-0.522786 0.49414,-1.303385 v -0.29362 z m 3.917318,-0.966797 v 4.576172 h -2.585287 v -1.188802 q -0.515625,0.730468 -1.160156,1.067057 -0.644531,0.329427 -1.568359,0.329427 -1.246094,0 -2.026693,-0.723307 -0.773438,-0.730469 -0.773438,-1.890625 0,-1.410808 0.966797,-2.069662 0.973959,-0.658854 3.050782,-0.658854 h 1.511067 v -0.200521 q 0,-0.608724 -0.479817,-0.888021 -0.479818,-0.286458 -1.496745,-0.286458 -0.823568,0 -1.532552,0.164714 -0.708985,0.164713 -1.317709,0.49414 v -1.955078 q 0.823568,-0.200521 1.654297,-0.300781 0.830729,-0.107422 1.661459,-0.107422 2.169922,0 3.129557,0.859375 0.966797,0.852214 0.966797,2.778646 z"
         style="font-style:normal;font-variant:normal;font-weight:bold;font-stretch:normal;font-size:14.66666698px;font-family:sans-serif;-inkscape-font-specification:'sans-serif Bold';fill:#ececec"
         id="path1196" /><path
         d="m 55.765679,43.781516 v 2.277343 h 2.642578 v 1.833334 h -2.642578 v 3.401692 q 0,0.558594 0.222005,0.759115 0.222006,0.193359 0.88086,0.193359 h 1.317708 v 1.833334 h -2.198568 q -1.518229,0 -2.155599,-0.630209 -0.630208,-0.637369 -0.630208,-2.155599 v -3.401692 h -1.27474 v -1.833334 h 1.27474 v -2.277343 z"
         style="font-style:normal;font-variant:normal;font-weight:bold;font-stretch:normal;font-size:14.66666698px;font-family:sans-serif;-inkscape-font-specification:'sans-serif Bold';fill:#ececec"
         id="path1198" /><path
         d="m 67.99029,50.047792 v 0.730468 h -5.994141 q 0.0931,0.902344 0.651693,1.353516 0.558594,0.451172 1.561198,0.451172 0.809245,0 1.654297,-0.236328 0.852213,-0.24349 1.747396,-0.730469 v 1.976563 q -0.909506,0.34375 -1.819011,0.515625 -0.909505,0.179036 -1.81901,0.179036 -2.177084,0 -3.38737,-1.102864 -1.203125,-1.110027 -1.203125,-3.108073 0,-1.96224 1.18164,-3.086589 1.188803,-1.124349 3.265626,-1.124349 1.890625,0 3.022135,1.138672 1.138672,1.138672 1.138672,3.04362 z m -2.635417,-0.852214 q 0,-0.730469 -0.429687,-1.174479 -0.422526,-0.451172 -1.110026,-0.451172 -0.744792,0 -1.210287,0.422526 -0.465495,0.415365 -0.580078,1.203125 z"
         style="font-style:normal;font-variant:normal;font-weight:bold;font-stretch:normal;font-size:14.66666698px;font-family:sans-serif;-inkscape-font-specification:'sans-serif Bold';fill:#ececec"
         id="path1200" /></g><path
       d="m 82.399928,45.08303 -3.562686,-3.464967 v 20.352001 c 0,0.640852 -0.413676,1.160182 -1.080093,1.160182 -0.666417,0 -1.080093,-0.51933 -1.080093,-1.160182 V 41.598849 l -3.60211,3.484181 c -0.46444,0.460645 -1.265869,0.468954 -1.74327,0.02285 -0.477401,-0.447143 -0.505483,-1.181474 -0.0405,-1.640562 l 5.571659,-5.511643 c 0.23654,-0.233698 0.545447,-0.351587 0.859754,-0.351587 0.0027,0 0.0043,0.0021 0.007,0.0021 0.0032,0 0.0054,-0.0021 0.0081,-0.0021 0.158234,0 0.316467,0.03064 0.46498,0.09088 0.148513,0.05868 0.280824,0.14697 0.392074,0.25603 0.0016,0.0021 0.0049,0.0021 0.0065,0.0047 l 5.58138,5.511644 c 0.46444,0.459087 0.428257,1.193418 -0.05022,1.640561 -0.475781,0.446623 -1.267489,0.437795 -1.732469,-0.02285 z"
       id="path895-6"
       inkscape:connector-curvature="0"
       style="fill:#ececec;stroke-width:0.52958667" /><path
       d="m 69.193503,58.322085 h -35.75 c -1.235,0 -2.234,0.721623 -2.234,1.426132 0,0.703939 1,1.426132 2.234,1.426132 h 35.75 c 1.234,0 2.234,-0.722193 2.234,-1.426132 0,-0.704509 -1,-1.426132 -2.234,-1.426132 z"
       id="path899-7"
       inkscape:connector-curvature="0"
       style="fill:#ececec;stroke-width:0.75528324" /></g></svg>