<?xml version="1.0" encoding="UTF-8" standalone="no"?>
<svg
   xmlns:dc="http://purl.org/dc/elements/1.1/"
   xmlns:cc="http://creativecommons.org/ns#"
   xmlns:rdf="http://www.w3.org/1999/02/22-rdf-syntax-ns#"
   xmlns:svg="http://www.w3.org/2000/svg"
   xmlns="http://www.w3.org/2000/svg"
   xmlns:sodipodi="http://sodipodi.sourceforge.net/DTD/sodipodi-0.dtd"
   xmlns:inkscape="http://www.inkscape.org/namespaces/inkscape"
   version="1.1"
   x="0px"
   y="0px"
   viewBox="0 0 94.425064 35.242992"
   enable-background="new 0 0 100 100"
   xml:space="preserve"
   id="svg909"
   sodipodi:docname="date-sort04.svg"
   inkscape:version="0.92.3 (3ce5693, 2018-03-11)"
   width="94.425064"
   height="35.242992"><metadata
     id="metadata915"><rdf:RDF><cc:Work
         rdf:about=""><dc:format>image/svg+xml</dc:format><dc:type
           rdf:resource="http://purl.org/dc/dcmitype/StillImage" /><dc:title></dc:title></cc:Work></rdf:RDF></metadata><defs
     id="defs913" /><sodipodi:namedview
     pagecolor="#ffffff"
     bordercolor="#666666"
     borderopacity="1"
     objecttolerance="10"
     gridtolerance="10"
     guidetolerance="10"
     inkscape:pageopacity="0"
     inkscape:pageshadow="2"
     inkscape:window-width="1213"
     inkscape:window-height="745"
     id="namedview911"
     showgrid="false"
     inkscape:zoom="3.7248522"
     inkscape:cx="29.715679"
     inkscape:cy="33.697855"
     inkscape:window-x="67"
     inkscape:window-y="27"
     inkscape:window-maximized="1"
     inkscape:current-layer="g903" /><g
     id="g903"
     transform="translate(-3.2281628,-32.988128)"><path
       d="m 24.415904,57.678122 -6.597,4.740343 V 34.575347 c 0,-0.876736 -0.766,-1.587219 -2,-1.587219 -1.234,0 -2,0.710483 -2,1.587219 v 27.869405 l -6.6700002,-4.76663 c -0.86,-0.630199 -2.344,-0.641566 -3.228,-0.03126 -0.884,0.611726 -0.936,1.616349 -0.075,2.244416 l 10.3170002,7.540356 c 0.438,0.319717 1.01,0.480997 1.592,0.480997 0.005,0 0.008,-0.0029 0.013,-0.0029 0.006,0 0.01,0.0029 0.015,0.0029 0.293,0 0.586,-0.04192 0.861,-0.124334 0.275,-0.08029 0.52,-0.201067 0.726,-0.350269 0.003,-0.0029 0.009,-0.0029 0.012,-0.0064 l 10.335,-7.540356 c 0.86,-0.628067 0.793,-1.63269 -0.093,-2.244416 -0.881,-0.611016 -2.347,-0.598937 -3.208,0.03126 z"
       id="path895"
       inkscape:connector-curvature="0"
       style="stroke-width:0.84290153" /><path
       d="m 67.885,33 h -35.75 c -1.235,0 -2.234,1.265 -2.234,2.5 0,1.234 1,2.5 2.234,2.5 h 35.75 c 1.234,0 2.234,-1.266 2.234,-2.5 0,-1.235 -1,-2.5 -2.234,-2.5 z"
       id="path899"
       inkscape:connector-curvature="0" /><path
       d="m 67.885,63 h -35.75 c -1.235,0 -2.234,1.265 -2.234,2.5 0,1.234 1,2.5 2.234,2.5 h 35.75 c 1.234,0 2.234,-1.266 2.234,-2.5 0,-1.235 -1,-2.5 -2.234,-2.5 z"
       id="path901"
       inkscape:connector-curvature="0" /><text
       xml:space="preserve"
       style="font-style:normal;font-weight:normal;font-size:46.55789948px;line-height:1.25;font-family:sans-serif;letter-spacing:0px;word-spacing:0px;fill:#000000;fill-opacity:1;stroke:none;stroke-width:1.16394758"
       x="36.442379"
       y="48.936188"
       id="text957"
       transform="scale(0.85914528,1.1639475)"><tspan
         sodipodi:role="line"
         id="tspan955"
         x="36.442379"
         y="48.936188"
         style="font-style:normal;font-variant:normal;font-weight:bold;font-stretch:normal;font-size:17.07122993px;font-family:sans-serif;-inkscape-font-specification:'sans-serif Bold';stroke-width:1.16394758">date</tspan></text>
<path
       d="m 93.742606,43.541125 -6.597,-4.740343 V 66.6439 c 0,0.876736 -0.766,1.587219 -2,1.587219 -1.234,0 -2,-0.710483 -2,-1.587219 V 38.774495 l -6.67,4.76663 c -0.86,0.630199 -2.344,0.641566 -3.228,0.03126 -0.884,-0.611726 -0.936,-1.616349 -0.075,-2.244416 l 10.317,-7.540356 c 0.438,-0.319717 1.01,-0.480997 1.592,-0.480997 0.005,0 0.008,0.0029 0.013,0.0029 0.006,0 0.01,-0.0029 0.015,-0.0029 0.293,0 0.586,0.04192 0.861,0.124334 0.275,0.08029 0.52,0.201067 0.726,0.350269 0.003,0.0029 0.009,0.0029 0.012,0.0064 l 10.335,7.540356 c 0.86,0.628067 0.793,1.63269 -0.093,2.244416 -0.881,0.611016 -2.347,0.598937 -3.208,-0.03126 z"
       id="path895-3"
       inkscape:connector-curvature="0"
       style="stroke-width:0.84290153" /></g></svg>