<?xml version="1.0" encoding="utf-8"?>
<!-- Generator: Adobe Illustrator 22.0.0, SVG Export Plug-In . SVG Version: 6.00 Build 0)  -->
<svg version="1.1" id="Layer_1" xmlns="http://www.w3.org/2000/svg" xmlns:xlink="http://www.w3.org/1999/xlink" x="0px" y="0px"
	 viewBox="0 0 180 50" style="enable-background:new 0 0 180 50;" xml:space="preserve">
<style type="text/css">
	.st0{fill:#000080;}
	.st1{fill:#91D8EC;}
	.st2{fill:#0066CC;}
</style>
<g id="eblk_logo_h" transform="translate(250.000000, 15.000000)">
	<polygon id="Shape" class="st0" points="-213.1,-2.7 -225.8,19.3 -222.8,24.4 -207.2,-2.7 	"/>
	<polygon id="Shape_1_" class="st1" points="-226.5,18.1 -231.2,9.9 -221.7,9.9 	"/>
	<polygon id="Shape_2_" class="st0" points="-235.5,2.4 -217.4,2.3 -214.4,-2.7 -238.5,-2.7 	"/>
	<polygon id="Shape_3_" class="st2" points="-221,8.7 -218.1,3.6 -234.8,3.6 -231.9,8.7 	"/>
	<path id="Shape_4_" class="st2" d="M-186.6,2.2c1.4,0.6,2.6,1.6,3.4,2.9c0.8,1.2,1.3,2.5,1.5,4c0.3,1.6,0.4,3.3,0.3,4.9h-16.3
		c0,1.9,0.5,3.9,1.6,5.5c1.1,1.4,2.8,2.2,4.6,2.1c1.8,0.1,3.5-0.6,4.7-2c0.7-0.8,1.1-1.6,1.4-2.6h3.7c-0.1,1-0.5,1.9-1,2.7
		c-0.5,0.9-1.1,1.8-1.8,2.5c-1.2,1.1-2.6,1.9-4.2,2.3c-1,0.2-2,0.3-3.1,0.3c-2.7,0-5.2-1.1-7.1-3c-1.9-2-2.9-4.9-2.9-8.5
		c-0.2-3.2,0.9-6.4,2.9-8.8c1.9-2.2,4.7-3.5,7.6-3.4C-189.6,1.1-188,1.5-186.6,2.2L-186.6,2.2z M-185.2,11c-0.1-1.4-0.4-2.7-1.1-3.9
		c-1.1-1.8-3-2.9-5.1-2.7c-1.6,0-3.2,0.7-4.3,1.9c-1.2,1.3-1.8,3-1.8,4.8L-185.2,11z"/>
	<path id="Shape_5_" class="st2" d="M-176.6-6.7h3.9v4.3h-3.9V-6.7z M-176.6,1.7h3.9V24h-3.9V1.7z"/>
	<path id="Shape_6_" class="st2" d="M-167,1.6h3.6v3.2c0.9-1.2,2.1-2.2,3.4-2.8c1.2-0.6,2.6-0.9,4-0.9c3.2,0,5.3,1.1,6.4,3.3
		c0.7,1.6,1,3.4,0.9,5.2V24h-3.9V9.9c0-1.1-0.2-2.3-0.6-3.3c-0.7-1.4-2.1-2.2-3.6-2.1c-0.7,0-1.4,0.1-2.1,0.3c-1.1,0.3-2,1-2.7,1.8
		c-0.6,0.7-1,1.4-1.2,2.3c-0.2,1.1-0.3,2.3-0.3,3.4V24h-3.8V1.6z"/>
	<path id="Shape_7_" class="st0" d="M-143.5-6.8h3.7V4.3c1.6-2.1,4.1-3.4,6.7-3.3c2.6-0.1,5.1,1,6.9,2.9c1.7,1.9,2.6,4.7,2.6,8.5
		c0.1,3.1-0.8,6.2-2.6,8.8c-1.6,2.3-4.3,3.6-7.2,3.5c-1.5,0.1-3.1-0.4-4.3-1.2c-0.9-0.6-1.6-1.4-2.3-2.3v2.9h-3.4L-143.5-6.8z
		 M-129.1,19c1.1-2,1.6-4.2,1.5-6.4c0.1-2.1-0.5-4.1-1.5-5.9c-1-1.5-2.7-2.4-4.5-2.3c-1.7,0-3.4,0.7-4.6,1.9
		c-1.3,1.3-1.9,3.4-1.9,6.3c-0.1,1.7,0.2,3.5,0.8,5.1c0.8,2.3,3.1,3.9,5.6,3.7C-131.9,21.6-130.1,20.6-129.1,19L-129.1,19z"/>
	<polygon id="Shape_8_" class="st0" points="-119.3,-6.7 -115.5,-6.7 -115.5,24 -119.3,24 	"/>
	<path id="Shape_9_" class="st0" d="M-109.9-6.7h3.8v4.3h-3.8V-6.7z M-109.9,1.7h3.8V24h-3.8V1.7z"/>
	<polygon id="Shape_10_" class="st0" points="-100.4,-6.7 -96.8,-6.7 -96.8,11.1 -87.1,1.6 -82.3,1.6 -90.9,9.9 -81.8,24 -86.6,24 
		-93.7,12.6 -96.7,15.6 -96.7,24 -100.4,24 	"/>
</g>
</svg>
